<svg xmlns="http://www.w3.org/2000/svg" width="80" height="24" fill="none"><path fill="#01996D" d="M9.18 1.44h3.87l9.24 21.24h-5.28l-1.83-4.5H6.93l-1.77 4.5H0zm1.8 6.18-2.58 6.6h5.19zM23.916 0h4.5v22.68h-4.5zM31.71 8.1h4.5v14.58h-4.5zm-.36-4.59q0-1.08.75-1.83.78-.78 1.86-.78t1.83.78q.78.75.78 1.83t-.78 1.86q-.75.75-1.83.75t-1.86-.75a2.6 2.6 0 0 1-.75-1.86M37.912 8.1h4.86l3.69 9.9h.06l3.42-9.9h4.53l-5.76 14.58h-4.77zM56.172 8.1h4.5v14.58h-4.5zm-.36-4.59q0-1.08.75-1.83.78-.78 1.86-.78t1.83.78q.78.75.78 1.83t-.78 1.86q-.75.75-1.83.75t-1.86-.75a2.6 2.6 0 0 1-.75-1.86M63.365 15.39q0-1.74.63-3.15t1.71-2.4q1.11-1.02 2.58-1.56 1.5-.54 3.18-.54t3.15.54q1.5.54 2.58 1.56 1.11.99 1.74 2.4t.63 3.15-.63 3.15-1.74 2.43q-1.08.99-2.58 1.53-1.47.54-3.15.54t-3.18-.54q-1.47-.54-2.58-1.53a7.5 7.5 0 0 1-1.71-2.43q-.63-1.41-.63-3.15m4.5 0q0 1.65.93 2.67.96 1.02 2.67 1.02t2.64-1.02q.96-1.02.96-2.67t-.96-2.67q-.93-1.02-2.64-1.02t-2.67 1.02q-.93 1.02-.93 2.67"/></svg>